<svg xmlns="http://www.w3.org/2000/svg" viewBox="0 0 96 96">
  <path fill="#f5f7fb" d="M24 10h32l18 18v52c0 4.4-3.6 8-8 8H24c-4.4 0-8-3.6-8-8V18c0-4.4 3.6-8 8-8Z"/>
  <path fill="#dfe5ee" d="M56 10v14c0 2.2 1.8 4 4 4h14L56 10Z"/>
  <path fill="#cfd7e3" d="M26 88h40c4.4 0 8-3.6 8-8v-4c-14.2 7.2-34.4 9.8-58 5.1 0 3.8 4.2 6.9 10 6.9Z" opacity=".42"/>
  <path fill="none" stroke="#ff4d24" stroke-linecap="round" stroke-linejoin="round" stroke-width="5.6" d="M31 64c10.4-6.6 24.6-8.9 34-4.6M39 28c5 15.3 1 31.7-8.5 40.5M48.5 48.5c5.1 7.7 11.2 13.1 18 15.6"/>
</svg>
